<?xml version="1.0" encoding="UTF-8" standalone="no"?>
<svg
   xmlns:svg="http://www.w3.org/2000/svg"
   xmlns="http://www.w3.org/2000/svg"
   version="1.1"
   width="53.177139"
   height="53.175121"
   id="svg8317">
  <defs
     id="defs8319" />
  <g
     transform="translate(-348.59001,-505.59567)"
     id="layer1">
    <g
       transform="matrix(1.1912319,0,0,-1.1912319,385.57395,526.21762)"
       id="g32">
      <path
         d="m 0,0 -3.539,3.539 -5.3,-5.301 -5.302,5.301 -3.538,-3.539 5.301,-5.301 -5.301,-5.301 3.538,-3.539 5.302,5.302 5.3,-5.302 L 0,-10.602 -5.301,-5.301 0,0 z"
         id="path34"
         style="fill:#435d6f;fill-opacity:0.9;fill-rule:nonzero;stroke:none" />
    </g>
    <path
       d="m 375.21424,550.00786 c -9.72969,0 -17.64702,-7.91539 -17.64702,-17.64702 0,-9.72971 7.91733,-17.64703 17.64702,-17.64703 9.73163,0 17.64703,7.91732 17.64703,17.64703 0,9.73163 -7.9154,17.64702 -17.64703,17.64702 m 0,-42.98362 c -13.99331,0 -25.33852,11.34327 -25.33852,25.3366 0,13.99331 11.34521,25.33852 25.33852,25.33852 13.99525,0 25.33853,-11.34521 25.33853,-25.33852 0,-13.99333 -11.34328,-25.3366 -25.33853,-25.3366"
       id="path166"
       style="fill:#435d6f;fill-opacity:0.2;fill-rule:nonzero;stroke:none" />
  </g>
</svg>
