<?xml version="1.0" encoding="UTF-8" standalone="no"?>
<svg
   xmlns:svg="http://www.w3.org/2000/svg"
   xmlns="http://www.w3.org/2000/svg"
   version="1.1"
   width="492.4375"
   height="492.44125"
   id="svg2"
   xml:space="preserve"><defs
     id="defs6"><clipPath
       id="clipPath18"><path
         d="M 0,512 512,512 512,0 0,0 0,512 z"
         id="path20" /></clipPath></defs><g
     transform="matrix(1.25,0,0,-1.25,-72.76575,566.80112)"
     id="g12"><g
       id="g14"><g
         clip-path="url(#clipPath18)"
         id="g16"><g
           transform="translate(343.0176,324.0869)"
           id="g22"><path
             d="M 0,0 -17.708,17.711 17.052,52.464 34.753,34.762 0,0 z m -55.038,39.992 20.776,44.552 22.694,-10.59 -20.776,-44.541 -22.694,10.579 z M -84.371,-211.19 c -21.773,0 -39.42,17.647 -39.42,39.417 0,17.003 10.781,31.445 25.863,36.979 l 0,112.43 25.037,0 0,-111.698 c 16.168,-4.916 27.937,-19.933 27.937,-37.711 0,-21.77 -17.649,-39.417 -39.417,-39.417 m -75.442,285.107 22.693,10.58 20.768,-44.545 -22.687,-10.578 -20.774,44.543 z M -172.166,0 -206.919,34.762 -189.218,52.464 -154.457,17.711 -172.166,0 z m 74.912,91.94 25.039,0 0,-49.152 -25.039,0 0,49.152 z m 9.425,37.414 c -108.788,0 -196.976,-88.192 -196.976,-196.976 0,-108.789 88.188,-196.977 196.976,-196.977 108.786,0 196.974,88.188 196.974,196.977 0,108.784 -88.188,196.976 -196.974,196.976"
             id="path24"
             style="fill:#ffffff;fill-opacity:1;fill-rule:nonzero;stroke:none" /></g></g></g></g></svg>