<?xml version="1.0" encoding="UTF-8" standalone="no"?>
<svg
   xmlns:svg="http://www.w3.org/2000/svg"
   xmlns="http://www.w3.org/2000/svg"
   version="1.1"
   width="546.77252"
   height="546.46875"
   id="svg2"
   xml:space="preserve"><defs
     id="defs6"><clipPath
       id="clipPath18"><path
         d="M 0,512 512,512 512,0 0,0 0,512 z"
         id="path20" /></clipPath></defs><g
     transform="matrix(1.25,0,0,-1.25,-45.90575,593.681)"
     id="g12"><g
       id="g14"><g
         clip-path="url(#clipPath18)"
         id="g16"><g
           transform="translate(466.8076,393.6768)"
           id="g22"><path
             d="m 0,0 -81.266,81.268 -126.604,0 25.043,-25.039 71.481,0 c 0.064,0 0.12,-0.009 0.185,-0.009 -0.006,-0.286 -0.024,-0.547 -0.024,-0.837 11.174,0 16.691,-9.045 19.119,-20.95 4.358,-22.959 -2.312,-55.827 -2.312,-55.827 0,0 0.137,0.032 0.341,0.082 -0.114,-0.601 -0.181,-0.932 -0.181,-0.932 0,0 67.129,16.325 75.793,-10.733 0.077,-0.294 0.161,-0.585 0.225,-0.886 0.083,-0.302 0.139,-0.613 0.207,-0.921 0.154,-0.928 0.26,-1.889 0.287,-2.904 l 0,-228.807 -87.998,0 0.002,-25.037 113.037,0 0,284.195 L 0,0 z m -157.051,-330.866 -247.996,0 0,366.623 141.615,0 c 37.203,0 19.277,-88.18 19.277,-88.18 0,0 86,20.901 87.104,-18.53 l 0,-259.913 z m -66.287,384.329 -7.335,7.333 -199.41,0 0,-416.703 298.07,0 0,318.044 -7.332,7.335 -83.993,83.991 z"
             id="path24"
             style="fill:#435d6f;fill-opacity:1;fill-rule:nonzero;stroke:none" /></g></g></g></g></svg>