<?xml version="1.0" encoding="UTF-8" standalone="no"?>
<svg xmlns:svg="http://www.w3.org/2000/svg" xmlns="http://www.w3.org/2000/svg" version="1.1" width="33.400002" height="23.704374" id="svg9073">
  <defs id="defs9075"/>
  <g transform="translate(-358.3,-520.50999)" id="layer1">
    <path d="m 375.00125,527.23687 c -4.46,0 -8.655,1.73625 -11.80875,4.89 -0.0462,0.0462 -0.0913,0.095 -0.1375,0.14375 l 2.4075,2.4075 c 2.415,-2.49 5.79625,-4.0375 9.53625,-4.0375 3.7425,0 7.12125,1.5475 9.53875,4.0375 l 2.4075,-2.4075 c -0.0462,-0.0488 -0.0913,-0.0975 -0.1375,-0.14375 -3.15375,-3.15375 -7.34875,-4.89 -11.80625,-4.89 m 16.5625,0.13375 c -9.1475,-9.1475 -23.98,-9.1475 -33.1275,0 -0.0487,0.0475 -0.09,0.0962 -0.13625,0.1425 l 2.30625,2.30875 c 3.66,-3.73 8.755,-6.04875 14.395,-6.04875 5.6375,0 10.7325,2.31875 14.3925,6.04875 L 391.7,527.51312 c -0.0462,-0.0462 -0.09,-0.095 -0.13625,-0.1425 m -16.565,13.38 c -0.9475,0 -1.7925,0.42625 -2.375,1.08625 l 2.3775,2.3775 2.375,-2.3775 c -0.5825,-0.66 -1.4275,-1.08625 -2.3775,-1.08625 m -7.0825,-3.61875 2.25125,2.24875 c 1.21125,-1.28625 2.925,-2.0925 4.83125,-2.0925 1.90875,0 3.6225,0.80625 4.83375,2.0925 l 2.24875,-2.24875 c -1.79,-1.8625 -4.29875,-3.03 -7.0825,-3.03 -2.78125,0 -5.29,1.1675 -7.0825,3.03" fill="#435d6f" fill-opacity="1" fill-rule="nonzero" stroke="none"/>
  </g>
</svg>
